<?xml version="1.0" encoding="UTF-8" standalone="no"?>
<svg
   version="1.1"
   id="Layer_1"
   x="0px"
   y="0px"
   width="671.90057"
   viewBox="0 0 671.90057 190.19092"
   enable-background="new 0 0 736 240"
   xml:space="preserve"
   sodipodi:docname="logo.svg"
   height="190.19092"
   inkscape:version="1.2.2 (b0a8486541, 2022-12-01)"
   xmlns:inkscape="http://www.inkscape.org/namespaces/inkscape"
   xmlns:sodipodi="http://sodipodi.sourceforge.net/DTD/sodipodi-0.dtd"
   xmlns="http://www.w3.org/2000/svg"
   xmlns:svg="http://www.w3.org/2000/svg"><defs
   id="defs3448" /><sodipodi:namedview
   id="namedview3446"
   pagecolor="#ffffff"
   bordercolor="#666666"
   borderopacity="1.0"
   inkscape:showpageshadow="2"
   inkscape:pageopacity="0.0"
   inkscape:pagecheckerboard="0"
   inkscape:deskcolor="#d1d1d1"
   showgrid="false"
   inkscape:zoom="1.71875"
   inkscape:cx="443.05455"
   inkscape:cy="143.70909"
   inkscape:window-width="2206"
   inkscape:window-height="944"
   inkscape:window-x="2376"
   inkscape:window-y="196"
   inkscape:window-maximized="0"
   inkscape:current-layer="Layer_1" />
<path
   fill="#000000"
   opacity="1"
   stroke="none"
   d="m 608.16426,162.19337 c -0.60998,-1.60749 -1.07818,-2.85369 -1.52936,-4.10604 -2.12353,-5.89405 -1.13434,-9.40221 3.86188,-13.03597 14.95067,-10.87369 29.93357,-21.70306 44.89697,-32.5593 1.4734,-1.06892 2.8987,-2.20404 4.8809,-3.71633 -3.7119,-1.79703 -7.6206,-2.98615 -8.4702,-7.25916 -0.7395,-3.718689 0.3934,-7.268399 1.2268,-10.831589 1.1741,-5.02016 2.3761,-10.03405 3.4989,-15.06559 0.1289,-0.57719 -0.172,-1.250258 -0.3142,-2.129558 -6.8957,-0.31092 -13.2829,1.710168 -19.7041,3.105868 -11.499,2.49936 -12.122,2.44046 -18.7676,-6.858898 -2.4776,0.17287 -3.3965,2.36568 -4.7086,3.93735 -3.09514,3.707088 -6.06188,7.521598 -9.06762,11.302918 -2.79901,3.52127 -6.26672,4.9779 -10.55981,3.08416 -4.31293,-1.90253 -6.30914,-5.27717 -5.56775,-10.04132 1.76343,-11.333188 3.5492,-22.662938 5.35211,-33.989908 0.23456,-1.47352 0.68262,-2.92551 -0.10718,-4.19334 -0.8258,-0.79325 -1.71423,-0.80672 -2.45135,-0.43812 -7.1438,3.57216 -11.46759,0.2751 -15.33081,-5.67107 -4.67835,-7.20066 -8.89581,-14.77984 -14.92963,-21.35094 -4.30707,3.46211 -6.29028,8.1579 -9.13757,12.17497 -2.40534,3.39354 -4.48688,7.01463 -6.82428,10.45865 -4.10449,6.04778 -6.73517,6.91645 -13.4737,4.63798 -1.07379,-0.36309 -2.09069,-1.09621 -3.77215,-0.19947 0.34686,8.74256 2.39368,17.48452 3.4826,26.33229 0.52735,4.28435 1.43268,8.52131 1.99878,12.801968 0.56177,4.24751 -1.07763,7.58789 -4.9635,9.44676 -3.95086,1.88994 -7.58746,0.85776 -10.39001,-2.32473 -3.6294,-4.1215 -6.99933,-8.47114 -10.49512,-12.710818 -1.03778,-1.2586 -2.12347,-2.47775 -3.15979,-3.68308 -1.81396,0.91026 -2.15314,2.47354 -2.88184,3.70623 -2.65246,4.487128 -6.40356,5.877868 -11.46179,4.709548 -6.47937,-1.49657 -13.04046,-2.63583 -19.5397,-4.051348 -3.70517,-0.80697 -6.01758,-0.14714 -5.45538,4.304238 0.46756,3.70246 -2.64627,3.16125 -4.63575,3.81994 -2.15615,0.71388 -3.99386,0.37158 -4.59164,-2.25743 -0.47949,-2.10881 -1.15225,-4.20162 -1.36246,-6.338598 -0.69806,-7.09512 4.13565,-11.40067 11.20648,-10.02681 7.34501,1.42712 14.72159,2.75002 21.97922,4.54383 3.59418,0.88835 5.4961,0.0836 7.11786,-3.24628 3.90582,-8.01952 10.71234,-8.83403 16.51599,-2.12204 3.26361,3.77442 6.33649,7.71352 9.52021,11.55785 0.18005,0.21745 0.58605,0.2478 1.2373,0.50203 1.33642,-3.61139 0.35443,-7.1723 -0.16309,-10.63948 -1.25091,-8.38021 -3.04699,-16.68196 -3.64257,-25.15532 -0.57239,-8.14205 4.53033,-12.40681 12.22692,-9.54219 4.56464,1.6989 6.94812,0.68946 9.35584,-3.24371 4.0835,-6.67074 8.54047,-13.11928 12.99133,-19.5569105 4.78345,-6.91877996 11.84351,-6.78789996 16.58124,0.23505 4.75055,7.0420605 9.49548,14.0902705 14.08771,21.2354605 1.60608,2.49883 3.06109,3.11701 6.08197,1.99635 10.45526,-3.87863 15.88611,0.76758 14.16968,11.81892 -1.47852,9.5194 -3.05256,19.02397 -4.53095,28.54338 -0.25079,1.61459 -0.58124,3.2818 0.43982,5.753928 3.67004,-4.472048 7.07776,-8.608588 10.46826,-12.759238 6.18132,-7.56731 13.22122,-6.8591 17.32682,1.89767 1.2998,2.77217 2.9372,3.57685 5.9118,2.89693 7.1296,-1.62964 14.3211,-2.9885 21.4859,-4.46464 9.5891,-1.97561 14.4134,3.1104 12.0672,12.660468 -1.5482,6.30204 -2.9149,12.64955 -4.5259,18.93491 -0.6628,2.58583 -0.042,3.81361 2.5578,4.8715 8.3257,3.387489 9.2618,11.023209 1.8782,16.511719 -15.3676,11.42327 -30.8282,22.7294 -46.4889,33.7448 -3.8259,2.69107 -4.2744,5.05405 -2.5296,9.04599 1.3786,3.15393 2.9948,6.33516 3.2295,9.92274 0.4062,6.21364 -2.8726,10.0362 -9.08073,9.71314 -5.46142,-0.2842 -10.87982,-1.33029 -16.32946,-1.92896 -3.36634,-0.36984 -2.82294,-2.48414 -2.43073,-4.74038 0.39246,-2.25792 0.0153,-4.96067 3.75732,-4.40425 2.46204,0.36607 4.96253,0.46717 7.44159,0.72651 6.35187,0.66446 6.85254,0.0389 4.53992,-6.29323 z"
   id="path3431"
   style="display:inline;fill:#205974;fill-opacity:1" />
<path
   fill="#000000"
   opacity="1"
   stroke="none"
   d="m 92.064417,177.27963 c -7.32395,-19.31286 -14.50708,-38.26777 -22.24365,-58.6831 -1.75437,4.08638 -3.08461,6.81781 -4.11979,9.65681 -5.814886,15.94771 -11.53128,31.93134 -17.34702,47.87874 -1.36467,3.74206 -2.63761,7.65655 -7.12554,8.98283 -5.49752,1.62468 -10.37597,-0.6398 -12.69185,-6.65133 -5.56245,-14.43889 -10.82867,-28.99195 -16.21017,-43.50051 -3.4726001,-9.36212 -7.0347197,-18.69261 -10.3727197,-28.10257 -2.29369999,-6.466 -1.41418999,-9.163529 2.99344,-10.841499 5.2246997,-1.98902 9.6092197,0.0941 11.6889197,5.945229 6.6275,18.64621 13.12243,37.33954 19.68423,56.00917 0.26992,0.76793 0.69792,1.48033 1.53353,3.22127 1.85692,-4.52461 3.46728,-8.22833 4.90775,-11.99696 5.76377,-15.07958 11.54774,-30.15224 17.162504,-45.28745 1.769216,-4.769149 4.288836,-8.275669 9.849986,-8.374009 4.81176,-0.0851 8.41608,2.62108 10.53074,8.347219 6.04879,16.37909 11.97537,32.80333 17.944164,49.21194 0.78485,2.15758 1.32924,4.43547 3.478709,6.51758 3.7583,-8.10878 5.9635,-16.45619 8.81326,-24.55221 3.9228,-11.14461 7.67546,-22.34908 11.51376,-33.52352 0.26958,-0.78484 0.56711,-1.578559 0.98291,-2.291609 2.13509,-3.66138 7.07096,-5.21706 10.93445,-3.36381 3.91377,1.87736 3.54897,5.168979 2.63591,8.587579 -2.96936,11.1178 -7.40715,21.72487 -11.33676,32.50682 -4.95662,13.59976 -9.95924,27.18361 -15.0706,40.72579 -2.40593,6.37431 -5.11925,7.98375 -10.773869,7.33815 -4.516484,-0.51564 -5.682414,-4.09288 -7.362294,-7.76055 z"
   id="path3433"
   style="fill:#205974;fill-opacity:1" />
<path
   fill="#000000"
   opacity="1"
   stroke="none"
   d="m 252.9709,176.81654 c -1.64239,8.542 -3.39038,10.46974 -9.09604,10.22277 -3.81521,-0.16517 -5.88586,-2.14382 -6.20602,-5.80449 -0.24585,-2.81092 -0.13709,-5.65532 -0.13767,-8.48484 -0.007,-34.78805 -0.007,-69.57612 -0.003,-104.364177 3.6e-4,-3.1843 -0.11316,-6.38449 3.20202,-8.35272 5.52704,-3.28139 11.25333,0.22977 11.42911,7.44981 0.25525,10.483388 0.0877,20.977078 0.0997,31.466368 0.002,1.798859 2.8e-4,3.597709 2.8e-4,5.394909 2.48483,0.55178 3.33255,-1.21722 4.50271,-2.17798 21.65335,-17.778039 51.74497,-9.984449 61.82752,16.29742 7.33184,19.11165 6.43661,37.86625 -6.32059,54.392 -13.68311,17.72509 -39.24997,19.68998 -56.57852,5.39503 -0.74707,-0.61629 -1.63587,-1.06079 -2.71967,-1.4341 m 10.90839,-8.63197 c 12.9866,11.17552 31.65652,7.84788 39.23331,-7.44225 6.97814,-14.08201 6.30224,-28.59771 -0.93256,-42.26919 -8.19119,-15.47875 -26.70197,-17.71878 -39.17758,-5.42339 -13.56751,13.37152 -13.38816,40.19011 0.87683,55.13483 z"
   id="path3435"
   style="fill:#205974;fill-opacity:1" />
<path
   fill="#000000"
   opacity="1"
   stroke="none"
   d="m 514.53828,182.40741 c -17.22399,8.8671 -34.11041,6.90219 -50.72332,-0.39707 -7.7172,-3.39073 -13.2909,-9.6585 -16.68662,-17.26715 -8.86981,-19.87429 -7.86285,-39.18397 5.06006,-57.13121 6.54755,-9.093139 15.89697,-13.693049 26.94876,-15.420889 10.23316,-1.59985 19.82123,-0.0245 28.97791,4.50274 15.57147,7.698789 22.59301,27.118409 19.36126,41.840429 -1.37451,6.26159 -3.97424,8.40222 -10.35211,8.42201 -17.15375,0.0532 -34.3078,0.025 -51.46176,0.0349 -7.31689,0.004 -8.35379,1.57901 -5.1318,8.26791 7.55108,15.67604 29.46075,25.80962 48.82299,12.35143 3.28321,-2.28207 6.50208,-4.54088 10.86566,-4.46106 2.67969,0.049 5.08442,0.20377 6.34668,2.86206 1.33808,2.81812 0.90326,5.55792 -1.19043,7.8806 -3.02886,3.36018 -6.46807,6.23647 -10.83728,8.51526 m -28.11932,-77.05783 c -13.57678,1.78267 -23.04883,8.56393 -27.33948,21.99602 -1.32293,4.14155 0.0221,5.55105 4.04767,5.5733 15.13819,0.0837 30.27594,0.26041 45.41413,0.35487 4.29211,0.0268 4.45239,-2.80053 3.57037,-5.8491 -3.63666,-12.57029 -11.81598,-20.07714 -25.69269,-22.07509 z"
   id="path3437"
   style="display:inline;fill:#cbcbcb;fill-opacity:1"
   inkscape:label="path3437" />
<path
   fill="#000000"
   opacity="1"
   stroke="none"
   d="m 226.11336,125.07495 c 0.10345,2.94983 0.19809,5.44748 0.18286,7.94449 -0.0669,10.97426 -2.7233,13.66553 -13.53008,13.67578 -15.6556,0.0149 -31.31128,-0.0153 -46.96688,0.002 -9.69196,0.0109 -10.78017,2.01599 -5.89235,10.72238 9.60504,17.10893 31.64509,21.94551 48.49453,10.59379 2.62964,-1.77163 5.15122,-3.66813 8.33045,-4.37947 3.37082,-0.75419 6.33645,-0.36362 8.25543,2.90105 1.8873,3.21074 0.41007,5.85991 -1.78085,8.08232 -4.8743,4.94441 -10.68523,8.53595 -17.35208,10.45613 -11.43662,3.29398 -22.96442,3.63237 -34.41106,0.001 -17.14455,-5.43884 -28.28522,-19.94807 -29.96671,-38.00715 -1.36674,-14.67861 0.97614,-28.34244 10.52739,-39.88202 11.32466,-13.682149 26.60686,-17.491019 43.29847,-14.129599 16.96252,3.41598 27.22216,14.493079 30.81088,32.018879 m -30.79288,-17.42238 c -6.87131,-3.45911 -13.81335,-3.22744 -20.67348,-0.11827 -8.24348,3.73613 -14.26703,9.70117 -17.03904,18.46149 -1.65891,5.2426 -0.13594,7.96435 4.05752,7.9378 14.77931,-0.0936 29.55857,-0.21379 44.33725,-0.37767 5.11131,-0.0567 6.51117,-1.96097 5.17494,-6.89444 -2.29243,-8.46383 -7.12906,-14.88577 -15.85719,-19.00891 z"
   id="path3439"
   inkscape:label="path3439"
   style="fill:#205974;fill-opacity:1" />
<path
   fill="#000000"
   opacity="1"
   stroke="none"
   d="m 435.26787,127.67851 c -0.006,16.98998 0.0221,33.48731 -0.0166,49.9845 -0.0134,5.69287 -2.43503,8.23602 -7.62278,8.28107 -4.97158,0.0432 -6.99984,-1.82296 -7.02078,-6.8817 -0.0634,-15.33005 0.0769,-30.66155 -0.0726,-45.99042 -0.0764,-7.83667 -1.9462,-15.20367 -7.73007,-20.97926 -6.93295,-6.92299 -15.15906,-7.8464 -23.96378,-4.49031 -8.92123,3.40048 -13.63928,10.01306 -14.65326,19.6008 -1.37014,12.95573 -0.82113,25.92973 -0.9161,38.89846 -0.036,4.92432 1.73355,9.73919 0.15115,14.81331 -1.10504,3.54346 -3.25879,4.84566 -6.50729,4.99777 -3.39951,0.15921 -6.36261,-0.71423 -7.40286,-4.48056 -0.43818,-1.58636 -0.86036,-3.24589 -0.86417,-4.87316 -0.0573,-24.49588 -0.0679,-48.99199 -0.0242,-73.48792 0.008,-4.381089 0.83722,-8.502779 6.17148,-9.357609 3.45962,-0.55441 6.9436,-0.0283 8.2366,3.70117 1.36737,3.943989 3.02844,2.898219 5.45758,1.21381 10.84369,-7.51923 22.66434,-8.23962 34.80286,-4.14341 15.88952,5.36199 22.06921,14.845819 21.97479,33.193459 z"
   id="path3441"
   inkscape:label="path3441"
   style="fill:#cbcbcb;fill-opacity:1" />
<path
   fill="#000000"
   opacity="1"
   stroke="none"
   d="m 536.76009,108.06096 c -4.80194,-1.01982 -5.58319,-4.29607 -5.03412,-8.064479 0.52179,-3.58137 3.03595,-4.85116 6.48828,-4.76799 3.57367,0.0861 5.01593,-2.15255 5.28369,-5.34681 0.15247,-1.8188 0.0562,-3.65844 0.072,-5.4887 0.0531,-6.14406 1.61682,-7.99531 6.83533,-8.09244 5.58521,-0.10396 7.67963,1.98145 7.85046,7.81659 0.26221,8.9571 2.36652,11.00479 11.41211,11.16407 2.15821,0.038 4.35138,-0.0571 6.46411,0.29503 3.57197,0.59533 4.94111,3.29608 4.89392,6.537159 -0.05,3.44171 -2.07537,5.62344 -5.56726,5.88182 -2.97869,0.2204 -5.98944,-0.0373 -8.98162,0.0565 -5.3935,0.16896 -8.12262,2.6543 -8.16175,7.95032 -0.11309,15.30972 -0.13391,30.62176 0.0136,45.93095 0.0587,6.08701 2.61475,9.02759 8.30927,11.00678 2.97339,1.03344 6.22717,1.0897 9.01959,2.73366 2.53626,1.49311 4.05121,3.5075 3.3407,6.56236 -0.68756,2.95601 -2.72614,4.62446 -5.70447,4.67239 -4.31006,0.0693 -8.67883,0.6568 -12.92877,-0.35545 -10.55164,-2.51312 -16.69068,-11.52867 -16.77362,-24.69914 -0.0975,-15.4764 -0.0905,-30.9538 -0.0444,-46.43053 0.0133,-4.45863 -1.19574,-7.59711 -6.78698,-7.36206 z"
   id="path3443"
   style="display:inline;fill:#cbcbcb;fill-opacity:1"
   inkscape:label="path3443" />
<ellipse
   style="fill:#cccccc;fill-opacity:1"
   id="path11448"
   cx="337.26242"
   cy="175.48805"
   rx="10.748224"
   ry="10.586434" /></svg>
